<svg width="104" height="45" viewBox="0 0 104 45" fill="none" xmlns="http://www.w3.org/2000/svg">
<path d="M6.42262 22.25H10.8964V0.659353H6.40765L0.826704 4.5346V8.60435L6.33284 4.80392H6.42262V22.25ZM24.0482 22.7288C29.0008 22.7288 32.3823 19.6166 32.3823 15.0382C32.3823 10.8337 29.4197 7.79639 25.2901 7.79639C23.0907 7.79639 21.37 8.70909 20.4872 10.1604H20.3974L20.8912 4.25031H31.0805V0.659353H17.3451L16.2828 13.0781H20.3226C21.0707 11.8362 22.4772 11.0881 24.1081 11.0881C26.4422 11.0881 28.0731 12.7639 28.0731 15.1579C28.0731 17.5069 26.4422 19.1528 24.0782 19.1528C21.9834 19.1528 20.3675 17.896 20.1132 16.0706H15.9387C16.0733 19.9757 19.4099 22.7288 24.0482 22.7288ZM45.2499 15.502H51.3545V11.6866H45.2499V5.22286H41.3297V11.6866H35.2251V15.502H41.3297V22.0405H45.2499V15.502ZM8.19278 41.25V32.1155H6.28105V35.825H2.16641V32.1155H0.254682V41.25H2.16641V37.4012H6.28105V41.25H8.19278ZM12.0226 40.0219C11.3959 40.0219 10.9781 39.7054 10.9781 39.199C10.9781 38.7179 11.3705 38.4077 12.0605 38.3571L13.4912 38.2685V38.7622C13.4912 39.4965 12.8265 40.0219 12.0226 40.0219ZM11.4149 41.3576C12.2631 41.3576 13.105 40.9335 13.4848 40.2118H13.5228V41.25H15.3079V36.5846C15.3079 35.2173 14.1748 34.3184 12.434 34.3184C10.6362 34.3184 9.51579 35.2236 9.44616 36.5403H11.1363C11.2249 36.0402 11.6617 35.6984 12.3517 35.6984C13.0481 35.6984 13.4912 36.0656 13.4912 36.6986V37.148L11.782 37.2493C10.0918 37.3506 9.14231 38.0659 9.14231 39.3003C9.14231 40.522 10.1235 41.3576 11.4149 41.3576ZM12.3137 44.1366C12.8455 44.1366 13.2569 43.7125 13.2569 43.1934C13.2569 42.6743 12.8455 42.2502 12.3137 42.2502C11.782 42.2502 11.3705 42.6743 11.3705 43.1934C11.3705 43.7125 11.782 44.1366 12.3137 44.1366ZM16.5044 41.25H18.3528V37.3569C18.3528 36.477 18.8782 35.8693 19.7074 35.8693C20.5367 35.8693 20.9545 36.3757 20.9545 37.262V41.25H22.8029V36.8758C22.8029 35.2869 21.9547 34.3374 20.4481 34.3374C19.4036 34.3374 18.6883 34.8312 18.3275 35.6731H18.2895V34.464H16.5044V41.25ZM27.1075 39.8067C26.1896 39.8067 25.6199 39.0851 25.6199 37.8443C25.6199 36.61 26.1959 35.8377 27.1075 35.8377C28.0317 35.8377 28.6204 36.6226 28.6204 37.8443C28.6204 39.0724 28.0317 39.8067 27.1075 39.8067ZM27.0758 43.8074C29.1078 43.8074 30.4625 42.7756 30.4625 41.155V34.464H28.6394V35.6478H28.6077C28.2532 34.8691 27.4873 34.3564 26.5124 34.3564C24.7906 34.3564 23.7271 35.6794 23.7271 37.8317C23.7271 39.9523 24.8223 41.231 26.4808 41.231C27.462 41.231 28.2596 40.7373 28.5761 40.0156H28.6141V41.2057C28.6141 41.9906 28.0823 42.5224 27.1265 42.5224C26.4238 42.5224 25.8921 42.1995 25.7465 41.7311H23.936C24.0816 42.9402 25.2907 43.8074 27.0758 43.8074ZM34.2416 41.25H36.09V37.1543C36.09 36.3947 36.5648 35.863 37.2675 35.863C37.9511 35.863 38.3626 36.2934 38.3626 37.0214V41.25H40.1414V37.129C40.1414 36.3757 40.6035 35.863 41.3061 35.863C42.0215 35.863 42.4139 36.2934 42.4139 37.0784V41.25H44.2624V36.6163C44.2624 35.249 43.3698 34.3374 42.0405 34.3374C41.0466 34.3374 40.2363 34.8755 39.9325 35.7301H39.8945C39.6666 34.8438 38.983 34.3374 38.0018 34.3374C37.0776 34.3374 36.3496 34.8755 36.0647 35.6921H36.0267V34.464H34.2416V41.25ZM51.7004 34.464H49.8519V38.3508C49.8519 39.2497 49.3392 39.8384 48.5163 39.8384C47.6997 39.8384 47.2502 39.3573 47.2502 38.452V34.464H45.4018V38.8382C45.4018 40.4207 46.3767 41.3766 47.8453 41.3766C48.8708 41.3766 49.5418 40.8828 49.8773 40.0283H49.9152V41.25H51.7004V34.464ZM48.5606 44.1366C49.0923 44.1366 49.5038 43.7125 49.5038 43.1934C49.5038 42.6743 49.0923 42.2502 48.5606 42.2502C48.0288 42.2502 47.6174 42.6743 47.6174 43.1934C47.6174 43.7125 48.0288 44.1366 48.5606 44.1366ZM59.0687 36.9898C58.9864 35.4515 57.8217 34.3184 55.9859 34.3184C53.9539 34.3184 52.6562 35.6731 52.6562 37.8507C52.6562 40.0662 53.9539 41.3956 55.9986 41.3956C57.7837 41.3956 58.9801 40.3638 59.0751 38.7622H57.3532C57.2393 39.5029 56.7582 39.946 56.0176 39.946C55.0997 39.946 54.53 39.1863 54.53 37.8507C54.53 36.5403 55.0997 35.768 56.0112 35.768C56.7709 35.768 57.2456 36.2744 57.3532 36.9898H59.0687ZM65.0571 41.3576C66.0573 41.3576 66.8422 40.8322 67.1714 40.0852H67.2031V41.25H69.0262V32.1155H67.1777V35.6288H67.1398C66.8106 34.8755 66.051 34.3564 65.0698 34.3564C63.367 34.3564 62.2908 35.6921 62.2908 37.8443C62.2908 40.0156 63.3606 41.3576 65.0571 41.3576ZM65.6838 35.8377C66.6017 35.8377 67.1904 36.6226 67.1904 37.857C67.1904 39.0977 66.6017 39.87 65.6838 39.87C64.7533 39.87 64.1836 39.1041 64.1836 37.857C64.1836 36.6163 64.7533 35.8377 65.6838 35.8377ZM70.2922 41.25H72.1406V34.464H70.2922V41.25ZM71.2164 33.717C71.7735 33.717 72.2039 33.2929 72.2039 32.7612C72.2039 32.2231 71.7735 31.8053 71.2164 31.8053C70.6594 31.8053 70.2289 32.2231 70.2289 32.7612C70.2289 33.2929 70.6594 33.717 71.2164 33.717ZM71.2164 44.1366C71.7482 44.1366 72.1596 43.7125 72.1596 43.1934C72.1596 42.6743 71.7482 42.2502 71.2164 42.2502C70.6847 42.2502 70.2732 42.6743 70.2732 43.1934C70.2732 43.7125 70.6847 44.1366 71.2164 44.1366ZM79.5407 36.9898C79.4584 35.4515 78.2936 34.3184 76.4578 34.3184C74.4258 34.3184 73.1282 35.6731 73.1282 37.8507C73.1282 40.0662 74.4258 41.3956 76.4705 41.3956C78.2556 41.3956 79.452 40.3638 79.547 38.7622H77.8252C77.7112 39.5029 77.2301 39.946 76.4895 39.946C75.5716 39.946 75.0019 39.1863 75.0019 37.8507C75.0019 36.5403 75.5716 35.768 76.4832 35.768C77.2428 35.768 77.7176 36.2744 77.8252 36.9898H79.5407ZM80.4839 41.25H82.3323V37.3759C82.3323 36.4833 82.845 35.8693 83.7186 35.8693C84.5605 35.8693 84.991 36.4011 84.991 37.2746V41.25H86.8394V36.8821C86.8394 35.3123 85.9785 34.3374 84.4719 34.3374C83.4401 34.3374 82.6994 34.8185 82.3386 35.6731H82.3006V32.1155H80.4839V41.25ZM96.7968 34.464H94.8661L93.4608 39.6168H93.4228L92.0112 34.464H90.0298L92.3783 41.25H94.4673L96.7968 34.464ZM103.709 34.464H101.861V38.3508C101.861 39.2497 101.348 39.8384 100.525 39.8384C99.7087 39.8384 99.2593 39.3573 99.2593 38.452V34.464H97.4109V38.8382C97.4109 40.4207 98.3857 41.3766 99.8543 41.3766C100.88 41.3766 101.551 40.8828 101.886 40.0283H101.924V41.25H103.709V34.464ZM100.57 44.1366C101.101 44.1366 101.513 43.7125 101.513 43.1934C101.513 42.6743 101.101 42.2502 100.57 42.2502C100.038 42.2502 99.6264 42.6743 99.6264 43.1934C99.6264 43.7125 100.038 44.1366 100.57 44.1366Z" fill="#103569"/>
</svg>
