<svg width="90" height="40" viewBox="0 0 90 40" fill="none" xmlns="http://www.w3.org/2000/svg">
<path d="M1.63448 6.45714V6.52619H5.50167V6.45714C5.50167 4.62022 6.92424 3.26671 8.85783 3.26671C10.7086 3.26671 12.0206 4.45448 12.0206 5.94611C12.0206 7.32725 11.3991 8.33548 9.38266 10.3519L1.86927 17.5891V20.3928H16.3574V17.0781H7.3662V16.9952L12.2278 12.3132C14.4238 10.131 16.0812 8.26643 16.0812 5.78038C16.0812 2.45183 13.1946 0.0210304 8.99595 0.0210304C4.64536 0.0210304 1.63448 2.68663 1.63448 6.45714ZM26.6607 20.8348C31.6742 20.8348 34.7127 16.8157 34.7127 10.3796C34.7127 3.94346 31.6466 0.007219 26.6607 0.007219C21.6748 0.007219 18.5949 3.95727 18.5949 10.3934C18.5949 16.8433 21.6472 20.8348 26.6607 20.8348ZM26.6607 17.4924C24.2851 17.4924 22.835 14.9235 22.835 10.3934C22.835 5.90468 24.3128 3.34957 26.6607 3.34957C29.0225 3.34957 30.4726 5.89087 30.4726 10.3934C30.4726 14.9373 29.0363 17.4924 26.6607 17.4924ZM45.0851 20.8348C50.0986 20.8348 53.1371 16.8157 53.1371 10.3796C53.1371 3.94346 50.071 0.007219 45.0851 0.007219C40.0992 0.007219 37.0192 3.95727 37.0192 10.3934C37.0192 16.8433 40.0716 20.8348 45.0851 20.8348ZM45.0851 17.4924C42.7095 17.4924 41.2593 14.9235 41.2593 10.3934C41.2593 5.90468 42.7372 3.34957 45.0851 3.34957C47.4468 3.34957 48.897 5.89087 48.897 10.3934C48.897 14.9373 47.4607 17.4924 45.0851 17.4924ZM63.5095 20.8348C68.523 20.8348 71.5615 16.8157 71.5615 10.3796C71.5615 3.94346 68.4954 0.007219 63.5095 0.007219C58.5236 0.007219 55.4436 3.95727 55.4436 10.3934C55.4436 16.8433 58.4959 20.8348 63.5095 20.8348ZM63.5095 17.4924C61.1339 17.4924 59.6837 14.9235 59.6837 10.3934C59.6837 5.90468 61.1615 3.34957 63.5095 3.34957C65.8712 3.34957 67.3214 5.89087 67.3214 10.3934C67.3214 14.9373 65.885 17.4924 63.5095 17.4924ZM83.6879 14.1639H89.323V10.642H83.6879V4.67547H80.0693V10.642H74.4343V14.1639H80.0693V20.1995H83.6879V14.1639ZM3.25847 37.8103V35.4554H4.87267V34.0564H3.25847V31.8345H4.6068C6.29064 31.8345 7.24017 32.8854 7.24017 34.7971C7.24017 36.7721 6.31596 37.8103 4.6068 37.8103H3.25847ZM1.34674 30.2583V34.0564H0.726379V35.4554H1.34674V39.3928H4.83469C7.57567 39.3928 9.18988 37.69 9.18988 34.7908C9.18988 31.8915 7.57567 30.2583 4.83469 30.2583H1.34674ZM12.8487 38.1648C12.2221 38.1648 11.8043 37.8482 11.8043 37.3418C11.8043 36.8607 12.1967 36.5506 12.8867 36.4999L14.3174 36.4113V36.905C14.3174 37.6394 13.6527 38.1648 12.8487 38.1648ZM12.241 39.5004C13.0893 39.5004 13.9312 39.0763 14.311 38.3547H14.349V39.3928H16.1341V34.7275C16.1341 33.3601 15.001 32.4612 13.2602 32.4612C11.4624 32.4612 10.342 33.3665 10.2723 34.6831H11.9625C12.0511 34.1831 12.4879 33.8412 13.1779 33.8412C13.8742 33.8412 14.3174 34.2084 14.3174 34.8414V35.2908L12.6082 35.3921C10.918 35.4934 9.9685 36.2087 9.9685 37.4431C9.9685 38.6648 10.9497 39.5004 12.241 39.5004ZM14.1211 31.6826C14.8871 31.6826 15.5074 31.0243 15.5074 29.9291H14.5009C14.4883 30.4292 14.3427 30.7141 14.0641 30.7141C13.6084 30.7141 13.2982 29.8595 12.3866 29.8595C11.6017 29.8595 10.994 30.4799 10.994 31.594H12.0005C12.0005 31.1319 12.1524 30.8217 12.4436 30.8217C12.912 30.8217 13.2412 31.6826 14.1211 31.6826ZM19.9449 39.3928H21.7933V35.5187C21.7933 34.6262 22.3061 34.0121 23.1797 34.0121C24.0216 34.0121 24.452 34.5439 24.452 35.4174V39.3928H26.3005V35.025C26.3005 33.4551 25.4395 32.4802 23.933 32.4802C22.9011 32.4802 22.1605 32.9613 21.7997 33.8159H21.7617V30.2583H19.9449V39.3928ZM30.5987 39.5384C32.6497 39.5384 33.96 38.2281 33.96 35.9935C33.96 33.7906 32.6307 32.4612 30.5987 32.4612C28.5667 32.4612 27.2373 33.7969 27.2373 35.9935C27.2373 38.2217 28.5477 39.5384 30.5987 39.5384ZM30.5987 38.1268C29.6871 38.1268 29.1111 37.3608 29.1111 35.9998C29.1111 34.6515 29.6998 33.8729 30.5987 33.8729C31.4976 33.8729 32.0799 34.6515 32.0799 35.9998C32.0799 37.3608 31.5039 38.1268 30.5987 38.1268ZM37.5366 38.1648C36.9099 38.1648 36.4921 37.8482 36.4921 37.3418C36.4921 36.8607 36.8846 36.5506 37.5746 36.4999L39.0052 36.4113V36.905C39.0052 37.6394 38.3405 38.1648 37.5366 38.1648ZM36.9289 39.5004C37.7771 39.5004 38.6191 39.0763 38.9989 38.3547H39.0369V39.3928H40.822V34.7275C40.822 33.3601 39.6889 32.4612 37.9481 32.4612C36.1503 32.4612 35.0298 33.3665 34.9602 34.6831H36.6504C36.739 34.1831 37.1758 33.8412 37.8658 33.8412C38.5621 33.8412 39.0052 34.2084 39.0052 34.8414V35.2908L37.296 35.3921C35.6059 35.4934 34.6563 36.2087 34.6563 37.4431C34.6563 38.6648 35.6375 39.5004 36.9289 39.5004ZM38.6507 31.651L37.2517 29.6886H35.5552L37.1758 31.651H38.6507ZM42.0184 39.3928H43.8668V35.4997C43.8668 34.6198 44.3922 34.0121 45.2215 34.0121C46.0507 34.0121 46.4685 34.5186 46.4685 35.4048V39.3928H48.317V35.0186C48.317 33.4298 47.4687 32.4802 45.9621 32.4802C44.9176 32.4802 44.2023 32.974 43.8415 33.8159H43.8035V32.6068H42.0184V39.3928ZM52.5519 31.0433V32.6068H51.596V33.9995H52.5519V37.5634C52.5519 38.8864 53.1722 39.4181 54.7674 39.4181C55.1409 39.4181 55.4574 39.3865 55.6473 39.3422V37.9812C55.5334 38.0002 55.3625 38.0128 55.1979 38.0128C54.6535 38.0128 54.4003 37.766 54.4003 37.2469V33.9995H55.6537V32.6068H54.4003V31.0433H52.5519ZM56.7108 39.3928H58.5592V35.5187C58.5592 34.6262 59.072 34.0121 59.9456 34.0121C60.7875 34.0121 61.2179 34.5439 61.2179 35.4174V39.3928H63.0664V35.025C63.0664 33.4551 62.2055 32.4802 60.6989 32.4802C59.667 32.4802 58.9264 32.9613 58.5656 33.8159H58.5276V30.2583H56.7108V39.3928ZM66.8708 38.1648C66.2441 38.1648 65.8263 37.8482 65.8263 37.3418C65.8263 36.8607 66.2188 36.5506 66.9088 36.4999L68.3394 36.4113V36.905C68.3394 37.6394 67.6748 38.1648 66.8708 38.1648ZM66.2631 39.5004C67.1114 39.5004 67.9533 39.0763 68.3331 38.3547H68.3711V39.3928H70.1562V34.7275C70.1562 33.3601 69.0231 32.4612 67.2823 32.4612C65.4845 32.4612 64.3641 33.3665 64.2944 34.6831H65.9846C66.0732 34.1831 66.51 33.8412 67.2 33.8412C67.8963 33.8412 68.3394 34.2084 68.3394 34.8414V35.2908L66.6303 35.3921C64.9401 35.4934 63.9906 36.2087 63.9906 37.4431C63.9906 38.6648 64.9718 39.5004 66.2631 39.5004ZM67.9849 31.651L66.586 29.6886H64.8895L66.51 31.651H67.9849ZM71.3526 39.3928H73.201V35.4997C73.201 34.6198 73.7265 34.0121 74.5557 34.0121C75.385 34.0121 75.8028 34.5186 75.8028 35.4048V39.3928H77.6512V35.0186C77.6512 33.4298 76.8029 32.4802 75.2963 32.4802C74.2519 32.4802 73.5365 32.974 73.1757 33.8159H73.1377V32.6068H71.3526V39.3928ZM78.8666 39.3928H80.715V35.5187C80.715 34.6262 81.2278 34.0121 82.1013 34.0121C82.9432 34.0121 83.3737 34.5439 83.3737 35.4174V39.3928H85.2221V35.025C85.2221 33.4551 84.3612 32.4802 82.8546 32.4802C81.8228 32.4802 81.0822 32.9613 80.7213 33.8159H80.6834V30.2583H78.8666V39.3928Z" fill="#103569"/>
</svg>
