<svg width="123" height="43" viewBox="0 0 123 43" fill="none" xmlns="http://www.w3.org/2000/svg">
<path d="M6.36373 12.2273H8.82216C11.0734 12.2273 12.4407 13.3322 12.4407 15.1553C12.4407 16.8403 10.9767 18.0143 8.89122 18.0143C6.69521 18.0143 5.31407 16.9094 5.18977 15.2244H1.19828C1.39164 18.8982 4.33346 21.3704 8.83597 21.3704C13.4352 21.3704 16.6808 18.9949 16.6808 15.4177C16.6808 12.6554 14.7611 10.86 11.7916 10.6114V10.5285C14.2362 10.0865 15.9074 8.31867 15.9074 5.87406C15.9074 2.68363 13.0761 0.556675 8.93265 0.556675C4.60969 0.556675 1.73692 2.95986 1.585 6.6475H5.42456C5.53505 4.90726 6.81951 3.76092 8.7531 3.76092C10.8248 3.76092 11.9712 4.82439 11.9712 6.44032C11.9712 8.08388 10.6867 9.21641 8.78073 9.21641H6.36373V12.2273ZM26.6388 21.3704C31.8872 21.3704 35.0085 17.3928 35.0085 10.7909C35.0085 8.12531 34.4423 5.88787 33.3374 4.18907C31.9562 1.82732 29.5669 0.542864 26.6941 0.542864C22.2468 0.542864 19.015 3.47088 19.015 7.57286C19.015 11.3572 21.8739 14.1471 25.6306 14.1471C28.2548 14.1471 30.216 12.835 30.9342 10.8876H30.948H30.9756C30.9756 10.8876 31.0032 10.8876 31.0171 10.8876C31.1275 15.4592 29.4564 18.0695 26.7079 18.0695C25.1058 18.0695 23.7937 17.1856 23.3932 15.8459H19.2774C19.8298 19.1054 22.8269 21.3704 26.6388 21.3704ZM26.7217 11.0119C24.65 11.0119 23.0893 9.49264 23.0893 7.44856C23.0893 5.4459 24.7053 3.87141 26.7493 3.87141C28.7796 3.87141 30.3679 5.4459 30.3679 7.47618C30.3679 9.49264 28.7934 11.0119 26.7217 11.0119ZM44.8975 21.3704C50.1458 21.3704 53.2672 17.3928 53.2672 10.7909C53.2672 8.12531 52.7009 5.88787 51.596 4.18907C50.2149 1.82732 47.8255 0.542864 44.9527 0.542864C40.5055 0.542864 37.2736 3.47088 37.2736 7.57286C37.2736 11.3572 40.1326 14.1471 43.8893 14.1471C46.5134 14.1471 48.4746 12.835 49.1928 10.8876H49.2066H49.2343C49.2343 10.8876 49.2619 10.8876 49.2757 10.8876C49.3862 15.4592 47.715 18.0695 44.9666 18.0695C43.3644 18.0695 42.0524 17.1856 41.6518 15.8459H37.536C38.0885 19.1054 41.0856 21.3704 44.8975 21.3704ZM44.9804 11.0119C42.9087 11.0119 41.348 9.49264 41.348 7.44856C41.348 5.4459 42.9639 3.87141 45.008 3.87141C47.0383 3.87141 48.6266 5.4459 48.6266 7.47618C48.6266 9.49264 47.0521 11.0119 44.9804 11.0119ZM63.1561 21.3704C68.4045 21.3704 71.5258 17.3928 71.5258 10.7909C71.5258 8.12531 70.9596 5.88787 69.8547 4.18907C68.4735 1.82732 66.0842 0.542864 63.2114 0.542864C58.7641 0.542864 55.5323 3.47088 55.5323 7.57286C55.5323 11.3572 58.3912 14.1471 62.1479 14.1471C64.7721 14.1471 66.7333 12.835 67.4515 10.8876H67.4653H67.4929C67.4929 10.8876 67.5205 10.8876 67.5344 10.8876C67.6448 15.4592 65.9737 18.0695 63.2252 18.0695C61.6231 18.0695 60.311 17.1856 59.9105 15.8459H55.7947C56.3471 19.1054 59.3442 21.3704 63.1561 21.3704ZM63.239 11.0119C61.1673 11.0119 59.6066 9.49264 59.6066 7.44856C59.6066 5.4459 61.2226 3.87141 63.2666 3.87141C65.2969 3.87141 66.8852 5.4459 66.8852 7.47618C66.8852 9.49264 65.3107 11.0119 63.239 11.0119ZM83.6661 14.6995H89.3011V11.1776H83.6661V5.21111H80.0475V11.1776H74.4124V14.6995H80.0475V20.7351H83.6661V14.6995ZM2.69624 39.9285V33.9464H2.75321L7.02611 39.9285H8.60866V30.794H6.77923V36.7444H6.72859L2.46202 30.794H0.866804V39.9285H2.69624ZM13.1094 38.4852C12.1916 38.4852 11.6218 37.7635 11.6218 36.5228C11.6218 35.2884 12.1979 34.5161 13.1094 34.5161C14.0337 34.5161 14.6224 35.3011 14.6224 36.5228C14.6224 37.7509 14.0337 38.4852 13.1094 38.4852ZM13.0778 42.4859C15.1098 42.4859 16.4645 41.454 16.4645 39.8335V33.1425H14.6414V34.3262H14.6097C14.2552 33.5476 13.4893 33.0349 12.5144 33.0349C10.7926 33.0349 9.72911 34.3579 9.72911 36.5101C9.72911 38.6308 10.8242 39.9095 12.4828 39.9095C13.4639 39.9095 14.2615 39.4157 14.5781 38.6941H14.616V39.8842C14.616 40.6691 14.0843 41.2008 13.1284 41.2008C12.4258 41.2008 11.894 40.878 11.7484 40.4096H9.93801C10.0836 41.6186 11.2927 42.4859 13.0778 42.4859ZM22.1173 38.7067H22.1553V39.9285H23.9404V34.3579H24.4785C25.3647 34.3579 25.8838 33.8641 25.8838 33.0349V31.6929H24.4342V32.674C24.4342 32.9779 24.2696 33.1425 23.9468 33.1425H22.092V37.0292C22.092 37.9281 21.5793 38.5168 20.7563 38.5168C19.9397 38.5168 19.4903 38.0357 19.4903 37.1305V33.1425H17.6419V37.5167C17.6419 39.0992 18.6167 40.0551 20.0853 40.0551C21.1108 40.0551 21.7818 39.5613 22.1173 38.7067ZM29.4098 38.6624C28.4919 38.6624 27.9222 37.8838 27.9222 36.5355C27.9222 35.1935 28.5045 34.4085 29.4098 34.4085C30.315 34.4085 30.891 35.1935 30.891 36.5355C30.891 37.8838 30.3213 38.6624 29.4098 38.6624ZM32.7648 36.6494C32.7648 35.7062 32.4926 34.9339 32.0115 34.4148V34.3769H32.2267C32.9483 34.3769 33.3535 33.9527 33.3535 33.1994V31.8321H31.9039V32.7247C31.9039 33.1045 31.7203 33.2501 31.2265 33.2501C30.6441 33.2501 30.315 32.9969 29.4098 32.9969C27.3588 32.9969 26.0484 34.3452 26.0484 36.5291C26.0484 38.7447 27.3398 40.0741 29.4414 40.0741C31.4228 40.0741 32.7648 38.7194 32.7648 36.6494ZM30.1631 32.1866L28.7641 30.2242H27.0676L28.6881 32.1866H30.1631ZM34.4676 39.9285H36.316V33.1425H34.4676V39.9285ZM35.3918 32.3955C35.9489 32.3955 36.3793 31.9714 36.3793 31.4396C36.3793 30.9016 35.9489 30.4838 35.3918 30.4838C34.8348 30.4838 34.4043 30.9016 34.4043 31.4396C34.4043 31.9714 34.8348 32.3955 35.3918 32.3955ZM42.6399 40.0361C43.6401 40.0361 44.425 39.5107 44.7542 38.7637H44.7859V39.9285H46.609V30.794H44.7605V34.3072H44.7226C44.3934 33.5539 43.6338 33.0349 42.6526 33.0349C40.9497 33.0349 39.8736 34.3705 39.8736 36.5228C39.8736 38.6941 40.9434 40.0361 42.6399 40.0361ZM43.2666 34.5161C44.1845 34.5161 44.7732 35.3011 44.7732 36.5355C44.7732 37.7762 44.1845 38.5485 43.2666 38.5485C42.3361 38.5485 41.7663 37.7825 41.7663 36.5355C41.7663 35.2947 42.3361 34.5161 43.2666 34.5161ZM54.1103 33.1425H52.2618V37.0292C52.2618 37.9281 51.7491 38.5168 50.9262 38.5168C50.1096 38.5168 49.6601 38.0357 49.6601 37.1305V33.1425H47.8117V37.5167C47.8117 39.0992 48.7866 40.0551 50.2552 40.0551C51.2807 40.0551 51.9517 39.5613 52.2872 38.7067H52.3251V39.9285H54.1103V33.1425ZM51.7238 32.1866L50.3248 30.2242H48.6283L50.2488 32.1866H51.7238ZM55.313 39.9285H57.1614V36.0354C57.1614 35.1555 57.6868 34.5478 58.5161 34.5478C59.3454 34.5478 59.7631 35.0542 59.7631 35.9404V39.9285H61.6116V35.5543C61.6116 33.9654 60.7633 33.0159 59.2567 33.0159C58.2122 33.0159 57.4969 33.5096 57.1361 34.3515H57.0981V33.1425H55.313V39.9285ZM65.9161 38.4852C64.9982 38.4852 64.4285 37.7635 64.4285 36.5228C64.4285 35.2884 65.0046 34.5161 65.9161 34.5161C66.8403 34.5161 67.429 35.3011 67.429 36.5228C67.429 37.7509 66.8403 38.4852 65.9161 38.4852ZM65.8845 42.4859C67.9165 42.4859 69.2711 41.454 69.2711 39.8335V33.1425H67.448V34.3262H67.4164C67.0619 33.5476 66.2959 33.0349 65.3211 33.0349C63.5993 33.0349 62.5358 34.3579 62.5358 36.5101C62.5358 38.6308 63.6309 39.9095 65.2894 39.9095C66.2706 39.9095 67.0682 39.4157 67.3847 38.6941H67.4227V39.8842C67.4227 40.6691 66.891 41.2008 65.9351 41.2008C65.2325 41.2008 64.7007 40.878 64.5551 40.4096H62.7447C62.8903 41.6186 64.0993 42.4859 65.8845 42.4859ZM77.013 33.0349C76.0318 33.0349 75.2785 33.5286 74.9114 34.3262H74.8734V33.1425H73.0503V42.144H74.8987V38.789H74.9367C75.2975 39.555 76.0571 40.0361 77.0446 40.0361C78.7411 40.0361 79.792 38.7194 79.792 36.5355C79.792 34.3452 78.7348 33.0349 77.013 33.0349ZM76.3926 38.5485C75.4874 38.5485 74.8924 37.7635 74.8924 36.5355C74.8924 35.3201 75.4874 34.5161 76.3926 34.5161C77.3168 34.5161 77.8992 35.3074 77.8992 36.5355C77.8992 37.7699 77.3168 38.5485 76.3926 38.5485ZM80.7921 39.9285H82.6406V36.0544C82.6406 35.1618 83.1533 34.5478 84.0269 34.5478C84.8688 34.5478 85.2993 35.0795 85.2993 35.9531V39.9285H87.1477V35.5606C87.1477 33.9907 86.2868 33.0159 84.7802 33.0159C83.7483 33.0159 83.0077 33.497 82.6469 34.3515H82.6089V30.794H80.7921V39.9285ZM90.9521 38.7004C90.3254 38.7004 89.9076 38.3839 89.9076 37.8775C89.9076 37.3964 90.3001 37.0862 90.9901 37.0356L92.4207 36.9469V37.4407C92.4207 38.175 91.7561 38.7004 90.9521 38.7004ZM90.3444 40.0361C91.1927 40.0361 92.0346 39.612 92.4144 38.8903H92.4524V39.9285H94.2375V35.2631C94.2375 33.8958 93.1044 32.9969 91.3636 32.9969C89.5658 32.9969 88.4454 33.9021 88.3757 35.2188H90.0659C90.1545 34.7187 90.5913 34.3769 91.2813 34.3769C91.9776 34.3769 92.4207 34.744 92.4207 35.377V35.8265L90.7116 35.9278C89.0214 36.0291 88.0719 36.7444 88.0719 37.9788C88.0719 39.2005 89.0531 40.0361 90.3444 40.0361ZM90.3444 30.7243C90.5723 30.6294 90.7622 30.5914 90.9901 30.5914C91.3699 30.5914 91.6358 30.8003 91.6358 31.0915C91.6358 31.4207 91.4649 31.6232 91.0281 31.8131L91.5662 32.4715C92.3131 32.1486 92.7626 31.5979 92.7626 31.0029C92.7626 30.2116 92.1865 29.6988 91.2876 29.6988C90.9585 29.6988 90.5976 29.7621 90.3444 29.8698V30.7243ZM95.4339 39.9285H97.2824V36.0354C97.2824 35.1555 97.8078 34.5478 98.637 34.5478C99.4663 34.5478 99.8841 35.0542 99.8841 35.9404V39.9285H101.732V35.5543C101.732 33.9654 100.884 33.0159 99.3777 33.0159C98.3332 33.0159 97.6179 33.5096 97.257 34.3515H97.219V33.1425H95.4339V39.9285ZM105.518 39.9285H107.366V36.0544C107.366 35.1618 107.879 34.5478 108.753 34.5478C109.595 34.5478 110.025 35.0795 110.025 35.9531V39.9285H111.874V35.5606C111.874 33.9907 111.013 33.0159 109.506 33.0159C108.474 33.0159 107.734 33.497 107.373 34.3515H107.335V30.794H105.518V39.9285ZM116.172 40.0741C118.223 40.0741 119.533 38.7637 119.533 36.5291C119.533 34.3262 118.204 32.9969 116.172 32.9969C114.14 32.9969 112.81 34.3326 112.81 36.5291C112.81 38.7574 114.121 40.0741 116.172 40.0741ZM116.172 38.6624C115.26 38.6624 114.684 37.8965 114.684 36.5355C114.684 35.1871 115.273 34.4085 116.172 34.4085C117.071 34.4085 117.653 35.1871 117.653 36.5355C117.653 37.8965 117.077 38.6624 116.172 38.6624ZM116.887 30.3002H115.456L113.792 32.2499H115.21L116.146 31.1168H116.197L117.134 32.2499H118.552L116.887 30.3002ZM118.989 30.0407L117.685 28.2176H116.146L117.634 30.0407H118.989ZM120.521 39.9285H122.369V33.1425H120.521V39.9285ZM121.445 32.3955C122.002 32.3955 122.432 31.9714 122.432 31.4396C122.432 30.9016 122.002 30.4838 121.445 30.4838C120.888 30.4838 120.457 30.9016 120.457 31.4396C120.457 31.9714 120.888 32.3955 121.445 32.3955Z" fill="#103569"/>
</svg>
