<svg width="42" height="43" viewBox="0 0 42 43" fill="none" xmlns="http://www.w3.org/2000/svg">
<g filter="url(#filter0_d_1_452)">
<path fill-rule="evenodd" clip-rule="evenodd" d="M29.8116 16.8747C30.7328 16.8747 31.492 17.5681 31.5958 18.4615L31.6078 18.671V22.2635C31.6078 23.1847 30.9144 23.9439 30.0211 24.0477L29.8116 24.0597H11.849C10.9278 24.0597 10.1686 23.3663 10.0648 22.473L10.0527 22.2635V18.671C10.0527 17.7498 10.7462 16.9905 11.6395 16.8868L11.849 16.8747H29.8116ZM11.8488 18.6709H15.4413V22.2635H11.8488V18.6709ZM29.8117 6.09717C30.7329 6.09717 31.4922 6.7906 31.5959 7.68395L31.608 7.89343V11.4859C31.608 12.4071 30.9146 13.1664 30.0212 13.2701L29.8117 13.2822H11.8492C10.928 13.2822 10.1687 12.5888 10.065 11.6954L10.0529 11.4859V7.89343C10.0529 6.97224 10.7463 6.21301 11.6397 6.10925L11.8492 6.09717H29.8117ZM11.8488 7.89342H15.4413V11.4859H11.8488V7.89342Z" fill="#550BF1"/>
</g>
<defs>
<filter id="filter0_d_1_452" x="-2.96855" y="0.708496" width="47.5973" height="47.5974" filterUnits="userSpaceOnUse" color-interpolation-filters="sRGB">
<feFlood flood-opacity="0" result="BackgroundImageFix"/>
<feColorMatrix in="SourceAlpha" type="matrix" values="0 0 0 0 0 0 0 0 0 0 0 0 0 0 0 0 0 0 127 0" result="hardAlpha"/>
<feOffset dy="9.42857"/>
<feGaussianBlur stdDeviation="4.71429"/>
<feColorMatrix type="matrix" values="0 0 0 0 0.333333 0 0 0 0 0.0431373 0 0 0 0 0.945098 0 0 0 0.2 0"/>
<feBlend mode="normal" in2="BackgroundImageFix" result="effect1_dropShadow_1_452"/>
<feBlend mode="normal" in="SourceGraphic" in2="effect1_dropShadow_1_452" result="shape"/>
</filter>
</defs>
</svg>
