<svg width="30" height="31" viewBox="0 0 30 31" fill="none" xmlns="http://www.w3.org/2000/svg">
<path fill-rule="evenodd" clip-rule="evenodd" d="M14.2727 26.39L7.89642 29.893C7.03514 30.3662 5.96987 30.0202 5.51706 29.1201C5.33676 28.7617 5.27454 28.3512 5.34004 27.9521L6.5578 20.5325C6.65582 19.9352 6.46634 19.3258 6.05109 18.9028L0.892583 13.6482C0.195794 12.9384 0.181537 11.7727 0.860738 11.0446C1.1312 10.7546 1.48559 10.5659 1.86903 10.5077L8.99791 9.42519C9.57177 9.33805 10.0679 8.9614 10.3245 8.41799L13.5126 1.66737C13.9433 0.755521 14.9997 0.381139 15.8723 0.831162C16.2198 1.01036 16.501 1.30426 16.6725 1.66737L19.8606 8.41799C20.1172 8.9614 20.6133 9.33805 21.1872 9.42519L28.3161 10.5077C29.279 10.6539 29.9462 11.5882 29.8063 12.5945C29.7505 12.9952 29.57 13.3655 29.2925 13.6482L24.134 18.9028C23.7188 19.3258 23.5293 19.9352 23.6273 20.5325L24.8451 27.9521C25.0095 28.9543 24.3654 29.9061 23.4064 30.078C23.0245 30.1465 22.6316 30.0815 22.2887 29.893L15.9124 26.39C15.3991 26.108 14.786 26.108 14.2727 26.39Z" fill="#FF8328"/>
</svg>
