<svg width="22" height="19" viewBox="0 0 22 19" fill="none" xmlns="http://www.w3.org/2000/svg">
<path fill-rule="evenodd" clip-rule="evenodd" d="M19.8115 10.8747C20.7327 10.8747 21.4919 11.5681 21.5957 12.4615L21.6078 12.671V16.2635C21.6078 17.1847 20.9143 17.9439 20.021 18.0477L19.8115 18.0597H1.84891C0.92772 18.0597 0.168493 17.3663 0.0647319 16.473L0.0526472 16.2635V12.671C0.0526472 11.7498 0.746075 10.9905 1.63942 10.8868L1.84891 10.8747H19.8115ZM1.8487 12.6709H5.44122V16.2635H1.8487V12.6709ZM19.8117 0.097168C20.7328 0.097168 21.4921 0.790596 21.5958 1.68395L21.6079 1.89343V5.48594C21.6079 6.40713 20.9145 7.16636 20.0211 7.27012L19.8117 7.2822H1.84906C0.927877 7.2822 0.16865 6.58877 0.0648886 5.69543L0.0528039 5.48594V1.89343C0.0528039 0.972241 0.746232 0.213014 1.63958 0.109253L1.84906 0.097168H19.8117ZM1.8487 1.89342H5.44122V5.48594H1.8487V1.89342Z" fill="#550BF1"/>
</svg>
