<svg width="328" height="76" viewBox="0 0 328 76" fill="none" xmlns="http://www.w3.org/2000/svg">
<path d="M8.73155 74.6707C7.88591 75.5569 6.80872 76 5.5 76C4.19128 76 3.1141 75.5569 2.26847 74.6707C1.42283 73.7845 1 72.6443 1 71.2453V25.7547C1 24.3557 1.42283 23.2155 2.26847 22.3293C3.1141 21.4431 4.18624 21 5.5 21C6.80872 21 7.88591 21.4431 8.73155 22.3293C9.57719 23.2155 10 24.3557 10 25.7547V71.2453C10 72.6443 9.57719 73.7845 8.73155 74.6707Z" fill="#31302E"/>
<path d="M45.8878 76C39.3502 76 33.8202 74.6147 29.293 71.844C24.7659 69.0733 21.8338 65.4287 20.4919 60.9102C20.1624 59.7881 20 58.7205 20 57.6976C20 56.2378 20.3677 55.0809 21.1031 54.2318C21.8386 53.3827 22.8271 52.9557 24.0687 52.9557C26.2272 52.9557 27.6455 54.1623 28.3332 56.5755C29.379 60.2796 31.4945 63.0652 34.6798 64.9371C37.865 66.8041 41.7618 67.7426 46.3701 67.7426C51.1742 67.7426 55.1379 66.5708 58.2562 64.2271C61.3746 61.8834 62.9362 58.8943 62.9362 55.2547C62.9362 52.0967 61.8474 49.4948 59.6745 47.4541C57.5017 45.4133 54.0108 43.8542 49.2067 42.7668L41.3606 40.9842C34.3646 39.3853 29.2358 36.9225 25.9693 33.5907C22.7029 30.259 21.0649 25.9441 21.0649 20.6411C21.0649 14.5932 23.3954 9.63779 28.0514 5.78466C32.7075 1.92656 38.6959 0 46.0167 0C51.9669 0 57.1101 1.45485 61.4606 4.3596C65.8063 7.26434 68.619 11.182 69.894 16.1077C70.0564 16.7184 70.1376 17.4831 70.1376 18.4017C70.1376 19.6232 69.7603 20.6212 69.0106 21.3859C68.2561 22.1505 67.2962 22.5329 66.1167 22.5329C63.9581 22.5329 62.4873 21.3461 61.7041 18.9628C59.3498 11.8275 54.0395 8.25742 45.7732 8.25742C41.2317 8.25742 37.4877 9.3349 34.5461 11.4948C31.6044 13.6548 30.1335 16.5645 30.1335 20.2389C30.1335 23.228 31.1937 25.7107 33.3188 27.682C35.4438 29.6532 38.8583 31.1676 43.5669 32.2203L51.413 34.0029C58.7003 35.6663 63.9534 38.0794 67.172 41.2424C70.3907 44.4004 72 48.616 72 53.8842C72 60.6818 69.6314 66.0693 64.8894 70.0416C60.1712 74.0089 53.8294 76 45.8878 76Z" fill="#31302E"/>
<path d="M103.216 76C95.5912 76 89.6474 73.5998 85.3894 68.7945C81.1266 63.9891 79 57.2915 79 48.7067C79 40.321 81.1314 33.6084 85.3894 28.5641C89.6474 23.5197 95.3442 21 102.47 21C109.102 21 114.512 23.3006 118.707 27.9018C122.902 32.5029 125 38.4486 125 45.7438C125 47.3472 124.579 48.6071 123.731 49.5283C122.883 50.4495 121.716 50.9076 120.224 50.9076H87.8987C87.8987 56.2956 89.2405 60.5382 91.929 63.6356C94.6127 66.7379 98.2603 68.2866 102.867 68.2866C105.948 68.2866 108.544 67.6641 110.652 66.4192C112.759 65.1743 114.822 63.038 116.842 60.0054C117.671 58.8153 118.746 58.2178 120.074 58.2178C121.231 58.2178 122.161 58.5763 122.859 59.2933C123.556 60.0104 123.905 60.9466 123.905 62.1068C123.905 62.7891 123.687 63.6605 123.261 64.7162C121.604 68.3314 119.032 71.115 115.554 73.072C112.066 75.019 107.953 76 103.216 76ZM87.9471 43.9461H116.043C115.941 39.345 114.634 35.655 112.115 32.8764C109.596 30.0978 106.331 28.7085 102.32 28.7085C98.2749 28.7085 94.9372 30.1077 92.2972 32.9013C89.662 35.6999 88.2136 39.3798 87.9471 43.9461Z" fill="#31302E"/>
<path d="M140.362 74.6707C139.557 75.5569 138.531 76 137.285 76C136.039 76 135.013 75.5569 134.208 74.6707C133.403 73.7845 133 72.6443 133 71.2453V25.5008C133 24.1715 133.379 23.0911 134.131 22.2546C134.884 21.4182 135.852 21 137.036 21C138.22 21 139.183 21.4182 139.94 22.2546C140.693 23.0911 141.071 24.1715 141.071 25.5008V30.6139H141.268C141.987 27.8557 143.463 25.5605 145.697 23.7383C147.925 21.9161 150.322 21.005 152.881 21.005C154.683 21.005 156.03 21.4331 156.917 22.2845C157.636 23.0014 158 23.9872 158 25.2469C158 26.611 157.559 27.6466 156.672 28.3635C155.819 29.1153 154.458 29.4887 152.589 29.4887C148.913 29.4887 146.161 30.6737 144.321 33.0386C142.485 35.4084 141.565 38.4156 141.565 42.06V71.2453C141.57 72.6443 141.167 73.7845 140.362 74.6707Z" fill="#31302E"/>
<path d="M183.471 76C182.053 76 180.915 75.6514 180.057 74.9543C179.199 74.2571 178.456 73.1068 177.829 71.5034L161.444 27.3889C161.145 26.6071 161 25.8402 161 25.0883C161 23.8633 161.395 22.8723 162.186 22.1254C162.977 21.3785 164.019 21 165.306 21C167.221 21 168.556 22.1254 169.318 24.3762L183.428 65.6324H183.625L197.783 24.3762C198.54 22.1254 199.861 21 201.742 21C203.03 21 204.062 21.3735 204.838 22.1254C205.614 22.8773 206 23.8633 206 25.0883C206 25.8402 205.851 26.6071 205.556 27.3889L189.219 71.5034C188.091 74.5011 186.176 76 183.471 76Z" fill="#31302E"/>
<path d="M220.872 74.6707C220.121 75.5569 219.163 76 218 76C216.837 76 215.879 75.5569 215.127 74.6707C214.376 73.7845 214 72.6443 214 71.2453V25.7547C214 24.3557 214.376 23.2155 215.127 22.3293C215.879 21.4431 216.832 21 218 21C219.163 21 220.121 21.4431 220.872 22.3293C221.624 23.2155 222 24.3557 222 25.7547V71.2453C222 72.6443 221.624 73.7845 220.872 74.6707Z" fill="#31302E"/>
<path d="M255.679 76C248.544 76 242.811 73.5204 238.487 68.5611C234.162 63.6018 232 56.9497 232 48.5996C232 40.2495 234.153 33.5625 238.463 28.5385C242.768 23.5145 248.477 21 255.578 21C260.379 21 264.679 22.2448 268.48 24.7294C272.276 27.219 274.669 30.321 275.659 34.0305C275.856 34.6778 275.957 35.3102 275.957 35.9226C275.957 37.1176 275.625 38.0636 274.972 38.7607C274.313 39.4578 273.425 39.8064 272.31 39.8064C271.387 39.8064 270.623 39.5773 270.018 39.1142C269.407 38.6562 268.807 37.8446 268.216 36.6844C265.52 31.4364 261.34 28.8123 255.684 28.8123C251.211 28.8123 247.602 30.6098 244.858 34.2048C242.11 37.7997 240.74 42.5598 240.74 48.49C240.74 54.5198 242.115 59.3098 244.858 62.855C247.602 66.4001 251.211 68.1727 255.684 68.1727C258.678 68.1727 261.176 67.5155 263.18 66.2059C265.184 64.8964 266.88 62.9247 268.259 60.3007C268.884 59.1106 269.475 58.2891 270.037 57.8459C270.594 57.4028 271.354 57.1837 272.305 57.1837C273.425 57.1837 274.318 57.5422 274.991 58.2592C275.664 58.9762 276 59.9123 276 61.0724C276 61.6849 275.87 62.4367 275.606 63.323C274.357 67.0375 271.882 70.0798 268.182 72.4449C264.487 74.8149 260.316 76 255.679 76Z" fill="#31302E"/>
<path d="M306.216 76C298.591 76 292.647 73.5998 288.389 68.7945C284.127 63.9891 282 57.2915 282 48.7067C282 40.321 284.131 33.6084 288.389 28.5641C292.647 23.5197 298.344 21 305.47 21C312.102 21 317.512 23.3006 321.707 27.9018C325.902 32.5029 328 38.4486 328 45.7438C328 47.3472 327.579 48.6071 326.731 49.5283C325.883 50.4495 324.716 50.9076 323.224 50.9076H290.899C290.899 56.2956 292.241 60.5382 294.929 63.6356C297.613 66.7379 301.26 68.2866 305.867 68.2866C308.948 68.2866 311.544 67.6641 313.652 66.4192C315.754 65.1743 317.822 63.038 319.842 60.0054C320.671 58.8153 321.746 58.2178 323.074 58.2178C324.231 58.2178 325.161 58.5763 325.859 59.2933C326.556 60.0104 326.905 60.9466 326.905 62.1068C326.905 62.7891 326.687 63.6605 326.261 64.7162C324.604 68.3314 322.032 71.115 318.554 73.072C315.066 75.019 310.958 76 306.216 76ZM290.947 43.9461H319.043C318.941 39.345 317.634 35.655 315.115 32.8764C312.596 30.0978 309.331 28.7085 305.32 28.7085C301.275 28.7085 297.937 30.1077 295.297 32.9013C292.667 35.6999 291.214 39.3798 290.947 43.9461Z" fill="#31302E"/>
<path d="M5.49999 13C8.53756 13 11 10.5376 11 7.50001C11 4.46244 8.53756 2 5.49999 2C2.46243 2 0 4.46244 0 7.50001C0 10.5376 2.46243 13 5.49999 13Z" fill="#E42733"/>
<path d="M218.5 13C221.538 13 224 10.5376 224 7.50001C224 4.46244 221.538 2 218.5 2C215.462 2 213 4.46244 213 7.50001C213 10.5376 215.462 13 218.5 13Z" fill="#E42733"/>
</svg>
